<svg xmlns="http://www.w3.org/2000/svg" width="1em" height="1em" viewBox="0 0 24 24" fill="none">
  <!-- Folder background -->
  <path opacity="0.4" d="M2 6.75C2 5.78 2.78 5 3.75 5h5.38c.49 0 .96.24 1.25.65l.67.95c.29.41.76.65 1.25.65H20.25c.97 0 1.75.78 1.75 1.75v9.25c0 .97-.78 1.75-1.75 1.75H3.75C2.78 20 2 19.22 2 18.25V6.75Z" fill="currentColor"/>

  <!-- Category lines -->
  <rect x="6.5" y="11" width="11" height="1.5" rx="0.75" fill="currentColor"/>
  <rect x="6.5" y="14" width="9" height="1.5" rx="0.75" fill="currentColor"/>
  <rect x="6.5" y="17" width="6" height="1.5" rx="0.75" fill="currentColor"/>
</svg>