<svg xmlns="http://www.w3.org/2000/svg" width="1em" height="1em" viewBox="0 0 24 24" fill="none">
  <!-- Background bubble with opacity -->
  <path opacity="0.4" d="M4 4.75C4 3.78 4.78 3 5.75 3h12.5C19.22 3 20 3.78 20 4.75v10.5c0 .97-.78 1.75-1.75 1.75H8.21l-3.49 2.33c-.49.33-1.13-.07-1.13-.67V4.75Z" fill="currentColor"/>
  
  <!-- Inner chat lines -->
  <path d="M7.75 8.75a.75.75 0 0 1 0-1.5h8.5a.75.75 0 0 1 0 1.5h-8.5Zm0 4a.75.75 0 0 1 0-1.5h5.5a.75.75 0 0 1 0 1.5h-5.5Z" fill="currentColor"/>
</svg>