<svg xmlns="http://www.w3.org/2000/svg" width="1em" height="1em" viewBox="0 0 24 24" fill="none">
  <!-- Cart base (light background) -->
  <path opacity="0.4" d="M3 2a1 1 0 0 0 0 2h2l3.6 7.59-1.35 2.45C6.52 14.37 7.48 16 9 16h10a1 1 0 0 0 0-2H9.42c-.14 0-.25-.11-.25-.25l.03-.12L10.1 12h7.45c.75 0 1.41-.41 1.75-1.03l3.24-5.88A1 1 0 0 0 21.5 4H6.21l-.94-2H3Z" fill="currentColor"/>

  <!-- Item rows inside cart -->
  <rect x="9" y="17" width="7" height="1.5" rx="0.75" fill="currentColor"/>
  <rect x="9" y="19.5" width="4" height="1.5" rx="0.75" fill="currentColor"/>
</svg>