<svg width="24" height="24" viewBox="0 0 24 24" fill="none" xmlns="http://www.w3.org/2000/svg">
  <path fill="currentColor" d="M19.14 12.94c.04-.3.06-.61.06-.94s-.02-.64-.06-.94l2.03-1.58a.5.5 0 00.11-.63l-1.92-3.32a.5.5 0 00-.61-.22l-2.39.96a7.03 7.03 0 00-1.63-.94l-.36-2.54a.5.5 0 00-.5-.42h-3.84a.5.5 0 00-.5.42l-.36 2.54a7.03 7.03 0 00-1.63.94l-2.39-.96a.5.5 0 00-.61.22L2.72 9.49a.5.5 0 00.11.63l2.03 1.58c-.04.3-.06.61-.06.94s.02.64.06.94l-2.03 1.58a.5.5 0 00-.11.63l1.92 3.32a.5.5 0 00.61.22l2.39-.96c.5.4 1.04.73 1.63.94l.36 2.54a.5.5 0 00.5.42h3.84a.5.5 0 00.5-.42l.36-2.54c.59-.21 1.13-.54 1.63-.94l2.39.96a.5.5 0 00.61-.22l1.92-3.32a.5.5 0 00-.11-.63l-2.03-1.58zM12 15.5a3.5 3.5 0 110-7 3.5 3.5 0 010 7z"></path>
</svg>
