<svg width="90" height="25" viewBox="0 0 90 25" fill="none" xmlns="http://www.w3.org/2000/svg">
<path fill-rule="evenodd" clip-rule="evenodd" d="M5.05206 0C8.04325 1.55601 9.99702 4.94527 9.73082 8.70116C9.48807 12.1244 7.46499 14.9487 4.70353 16.2229C1.71192 14.6669 -0.241851 11.2785 0.0247604 7.52273C0.267923 4.09892 2.29019 1.27419 5.05206 0Z" fill="#738C4B"/>
<path d="M26.3665 3.81818L29.0163 11.8324H29.1207L31.7656 3.81818H33.794L30.2045 14H27.9276L24.343 3.81818H26.3665ZM35.1351 14V3.81818H41.7573V5.36435H36.9796V8.12855H41.4142V9.67472H36.9796V12.4538H41.7971V14H35.1351ZM50.46 7.0696C50.3772 6.80114 50.2628 6.56084 50.117 6.34872C49.9745 6.13329 49.8021 5.94934 49.6 5.79688C49.4011 5.64441 49.1724 5.53007 48.9139 5.45383C48.6554 5.37429 48.3736 5.33452 48.0687 5.33452C47.5218 5.33452 47.0346 5.47206 46.6071 5.74716C46.1795 6.02225 45.8431 6.42661 45.5978 6.96023C45.3559 7.49053 45.2349 8.13684 45.2349 8.89915C45.2349 9.66809 45.3559 10.3194 45.5978 10.853C45.8398 11.3866 46.1762 11.7926 46.6071 12.071C47.0379 12.3461 47.5384 12.4837 48.1085 12.4837C48.6255 12.4837 49.073 12.3842 49.4508 12.1854C49.832 11.9865 50.1253 11.7048 50.3308 11.3402C50.5363 10.9723 50.639 10.5414 50.639 10.0476L51.0566 10.1122H48.2924V8.67045H52.4238V9.89347C52.4238 10.7652 52.2382 11.5192 51.867 12.1555C51.4958 12.7919 50.9854 13.2824 50.3358 13.6271C49.6861 13.9685 48.9404 14.1392 48.0985 14.1392C47.1606 14.1392 46.3369 13.9287 45.6277 13.5078C44.9217 13.0836 44.3699 12.482 43.9721 11.7031C43.5777 10.9209 43.3805 9.9929 43.3805 8.91903C43.3805 8.09706 43.4965 7.36293 43.7285 6.71662C43.9638 6.07031 44.292 5.52178 44.7129 5.07102C45.1338 4.61695 45.6277 4.27225 46.1944 4.03693C46.7612 3.7983 47.3777 3.67898 48.0439 3.67898C48.6073 3.67898 49.1326 3.76184 49.6199 3.92756C50.1071 4.08996 50.5396 4.32197 50.9174 4.62358C51.2986 4.92519 51.6118 5.28314 51.8571 5.69744C52.1023 6.11174 52.2631 6.56913 52.3393 7.0696H50.46ZM61.0284 7.0696C60.9455 6.80114 60.8312 6.56084 60.6854 6.34872C60.5429 6.13329 60.3705 5.94934 60.1683 5.79688C59.9695 5.64441 59.7408 5.53007 59.4822 5.45383C59.2237 5.37429 58.942 5.33452 58.6371 5.33452C58.0902 5.33452 57.603 5.47206 57.1754 5.74716C56.7479 6.02225 56.4115 6.42661 56.1662 6.96023C55.9242 7.49053 55.8033 8.13684 55.8033 8.89915C55.8033 9.66809 55.9242 10.3194 56.1662 10.853C56.4081 11.3866 56.7446 11.7926 57.1754 12.071C57.6063 12.3461 58.1068 12.4837 58.6768 12.4837C59.1939 12.4837 59.6413 12.3842 60.0192 12.1854C60.4003 11.9865 60.6937 11.7048 60.8991 11.3402C61.1046 10.9723 61.2074 10.5414 61.2074 10.0476L61.625 10.1122H58.8608V8.67045H62.9922V9.89347C62.9922 10.7652 62.8066 11.5192 62.4354 12.1555C62.0642 12.7919 61.5537 13.2824 60.9041 13.6271C60.2545 13.9685 59.5088 14.1392 58.6669 14.1392C57.7289 14.1392 56.9053 13.9287 56.196 13.5078C55.4901 13.0836 54.9382 12.482 54.5405 11.7031C54.1461 10.9209 53.9489 9.9929 53.9489 8.91903C53.9489 8.09706 54.0649 7.36293 54.2969 6.71662C54.5322 6.07031 54.8603 5.52178 55.2812 5.07102C55.7022 4.61695 56.196 4.27225 56.7628 4.03693C57.3295 3.7983 57.946 3.67898 58.6122 3.67898C59.1757 3.67898 59.701 3.76184 60.1882 3.92756C60.6754 4.08996 61.108 4.32197 61.4858 4.62358C61.867 4.92519 62.1802 5.28314 62.4254 5.69744C62.6707 6.11174 62.8314 6.56913 62.9077 7.0696H61.0284ZM66.6202 3.81818V14H64.7757V3.81818H66.6202Z" fill="#738C4B"/>
<path d="M75.4386 7.0696C75.3557 6.80114 75.2414 6.56084 75.0955 6.34872C74.953 6.13329 74.7807 5.94934 74.5785 5.79688C74.3796 5.64441 74.1509 5.53007 73.8924 5.45383C73.6339 5.37429 73.3522 5.33452 73.0472 5.33452C72.5004 5.33452 72.0131 5.47206 71.5856 5.74716C71.158 6.02225 70.8216 6.42661 70.5763 6.96023C70.3344 7.49053 70.2134 8.13684 70.2134 8.89915C70.2134 9.66809 70.3344 10.3194 70.5763 10.853C70.8183 11.3866 71.1547 11.7926 71.5856 12.071C72.0165 12.3461 72.5169 12.4837 73.087 12.4837C73.604 12.4837 74.0515 12.3842 74.4293 12.1854C74.8105 11.9865 75.1038 11.7048 75.3093 11.3402C75.5148 10.9723 75.6175 10.5414 75.6175 10.0476L76.0352 10.1122H73.271V8.67045H77.4023V9.89347C77.4023 10.7652 77.2167 11.5192 76.8455 12.1555C76.4743 12.7919 75.9639 13.2824 75.3143 13.6271C74.6647 13.9685 73.9189 14.1392 73.0771 14.1392C72.1391 14.1392 71.3155 13.9287 70.6062 13.5078C69.9002 13.0836 69.3484 12.482 68.9506 11.7031C68.5562 10.9209 68.359 9.9929 68.359 8.91903C68.359 8.09706 68.475 7.36293 68.707 6.71662C68.9424 6.07031 69.2705 5.52178 69.6914 5.07102C70.1123 4.61695 70.6062 4.27225 71.1729 4.03693C71.7397 3.7983 72.3562 3.67898 73.0224 3.67898C73.5858 3.67898 74.1112 3.76184 74.5984 3.92756C75.0856 4.08996 75.5181 4.32197 75.896 4.62358C76.2771 4.92519 76.5903 5.28314 76.8356 5.69744C77.0808 6.11174 77.2416 6.56913 77.3178 7.0696H75.4386ZM88.2839 8.90909C88.2839 10.0062 88.0784 10.9458 87.6674 11.728C87.2598 12.5069 86.7029 13.1035 85.997 13.5178C85.2943 13.9321 84.4972 14.1392 83.6056 14.1392C82.7141 14.1392 81.9153 13.9321 81.2093 13.5178C80.5067 13.1001 79.9499 12.5019 79.5389 11.723C79.1312 10.9408 78.9274 10.0028 78.9274 8.90909C78.9274 7.81203 79.1312 6.87405 79.5389 6.09517C79.9499 5.31297 80.5067 4.71473 81.2093 4.30043C81.9153 3.88613 82.7141 3.67898 83.6056 3.67898C84.4972 3.67898 85.2943 3.88613 85.997 4.30043C86.7029 4.71473 87.2598 5.31297 87.6674 6.09517C88.0784 6.87405 88.2839 7.81203 88.2839 8.90909ZM86.4295 8.90909C86.4295 8.13684 86.3085 7.48556 86.0666 6.95526C85.8279 6.42164 85.4965 6.01894 85.0723 5.74716C84.648 5.47206 84.1592 5.33452 83.6056 5.33452C83.0521 5.33452 82.5633 5.47206 82.139 5.74716C81.7148 6.01894 81.3817 6.42164 81.1397 6.95526C80.9011 7.48556 80.7818 8.13684 80.7818 8.90909C80.7818 9.68134 80.9011 10.3343 81.1397 10.8679C81.3817 11.3982 81.7148 11.8009 82.139 12.076C82.5633 12.3478 83.0521 12.4837 83.6056 12.4837C84.1592 12.4837 84.648 12.3478 85.0723 12.076C85.4965 11.8009 85.8279 11.3982 86.0666 10.8679C86.3085 10.3343 86.4295 9.68134 86.4295 8.90909Z" fill="#2B2B2A"/>
<path d="M24.4304 22V17.6364H27.2685V18.299H25.2209V19.4837H27.1214V20.1463H25.2209V21.3374H27.2855V22H24.4304ZM28.9826 22.0661C28.7752 22.0661 28.5884 22.0291 28.4222 21.9553C28.2575 21.88 28.1268 21.7692 28.0302 21.6229C27.935 21.4766 27.8874 21.2962 27.8874 21.0817C27.8874 20.897 27.9215 20.7443 27.9897 20.6236C28.0579 20.5028 28.1509 20.4062 28.2688 20.3338C28.3867 20.2614 28.5195 20.2067 28.6673 20.1697C28.8164 20.1314 28.9705 20.1037 29.1296 20.0866C29.3214 20.0668 29.4769 20.049 29.5962 20.0334C29.7156 20.0163 29.8022 19.9908 29.8562 19.9567C29.9116 19.9212 29.9393 19.8665 29.9393 19.7926V19.7798C29.9393 19.6193 29.8917 19.495 29.7965 19.407C29.7013 19.3189 29.5643 19.2749 29.3853 19.2749C29.1964 19.2749 29.0465 19.3161 28.9357 19.3984C28.8263 19.4808 28.7525 19.5781 28.7141 19.6903L27.994 19.5881C28.0508 19.3892 28.1445 19.223 28.2752 19.0895C28.4059 18.9545 28.5657 18.8537 28.7546 18.7869C28.9435 18.7188 29.1523 18.6847 29.381 18.6847C29.5387 18.6847 29.6957 18.7031 29.8519 18.7401C30.0082 18.777 30.1509 18.8381 30.2802 18.9233C30.4094 19.0071 30.5131 19.1214 30.5913 19.2663C30.6708 19.4112 30.7106 19.5923 30.7106 19.8097V22H29.9691V21.5504H29.9435C29.8967 21.6413 29.8306 21.7266 29.7454 21.8061C29.6616 21.8842 29.5558 21.9474 29.4279 21.9957C29.3015 22.0426 29.1531 22.0661 28.9826 22.0661ZM29.1829 21.4993C29.3377 21.4993 29.4719 21.4687 29.5856 21.4077C29.6992 21.3452 29.7866 21.2628 29.8477 21.1605C29.9102 21.0582 29.9414 20.9467 29.9414 20.826V20.4403C29.9173 20.4602 29.8761 20.4787 29.8178 20.4957C29.761 20.5128 29.6971 20.5277 29.6261 20.5405C29.555 20.5533 29.4847 20.5646 29.4151 20.5746C29.3455 20.5845 29.2852 20.593 29.234 20.6001C29.119 20.6158 29.016 20.6413 28.9251 20.6768C28.8342 20.7124 28.7624 20.7621 28.7099 20.826C28.6573 20.8885 28.631 20.9695 28.631 21.0689C28.631 21.2109 28.6829 21.3182 28.7866 21.3906C28.8903 21.4631 29.0224 21.4993 29.1829 21.4993ZM33.1204 18.7273V19.3239H31.239V18.7273H33.1204ZM31.7035 17.9432H32.4748V21.0156C32.4748 21.1193 32.4904 21.1989 32.5217 21.2543C32.5543 21.3082 32.5969 21.3452 32.6495 21.3651C32.7021 21.3849 32.7603 21.3949 32.8242 21.3949C32.8725 21.3949 32.9165 21.3913 32.9563 21.3842C32.9975 21.3771 33.0288 21.3707 33.0501 21.3651L33.18 21.968C33.1388 21.9822 33.0799 21.9979 33.0032 22.0149C32.9279 22.032 32.8356 22.0419 32.7262 22.0447C32.533 22.0504 32.359 22.0213 32.2042 21.9574C32.0494 21.892 31.9265 21.7912 31.8356 21.6548C31.7461 21.5185 31.7021 21.348 31.7035 21.1435V17.9432ZM35.2878 22V17.6364H38.0833V18.299H36.0783V19.4837H37.8915V20.1463H36.0783V22H35.2878ZM38.7225 22V18.7273H39.4703V19.2727H39.5044C39.5641 19.0838 39.6664 18.9382 39.8113 18.8359C39.9576 18.7322 40.1245 18.6804 40.312 18.6804C40.3546 18.6804 40.4022 18.6825 40.4547 18.6868C40.5087 18.6896 40.5534 18.6946 40.589 18.7017V19.4112C40.5563 19.3999 40.5044 19.3899 40.4334 19.3814C40.3638 19.3714 40.2963 19.3665 40.231 19.3665C40.0904 19.3665 39.964 19.397 39.8517 19.4581C39.7409 19.5178 39.6536 19.6009 39.5897 19.7074C39.5257 19.8139 39.4938 19.9368 39.4938 20.076V22H38.7225ZM42.4155 22.0639C42.0874 22.0639 41.804 21.9957 41.5653 21.8594C41.3281 21.7216 41.1456 21.527 41.0178 21.2756C40.8899 21.0227 40.826 20.7251 40.826 20.3828C40.826 20.0462 40.8899 19.7507 41.0178 19.4964C41.147 19.2408 41.3274 19.0419 41.5589 18.8999C41.7905 18.7564 42.0625 18.6847 42.375 18.6847C42.5767 18.6847 42.767 18.7173 42.946 18.7827C43.1264 18.8466 43.2855 18.946 43.4233 19.081C43.5625 19.2159 43.6719 19.3878 43.7514 19.5966C43.831 19.804 43.8707 20.0511 43.8707 20.3381V20.5746H41.1882V20.0547H43.1314C43.13 19.907 43.098 19.7756 43.0355 19.6605C42.973 19.544 42.8857 19.4524 42.7734 19.3857C42.6626 19.3189 42.5334 19.2855 42.3857 19.2855C42.228 19.2855 42.0895 19.3239 41.9702 19.4006C41.8509 19.4759 41.7578 19.5753 41.6911 19.6989C41.6257 19.821 41.5923 19.9553 41.5909 20.1016V20.5554C41.5909 20.7457 41.6257 20.9091 41.6953 21.0455C41.7649 21.1804 41.8622 21.2841 41.9872 21.3565C42.1122 21.4276 42.2585 21.4631 42.4261 21.4631C42.5384 21.4631 42.6399 21.4474 42.7308 21.4162C42.8217 21.3835 42.9006 21.3359 42.9673 21.2734C43.0341 21.2109 43.0845 21.1335 43.1186 21.0412L43.8388 21.1222C43.7933 21.3125 43.7067 21.4787 43.5788 21.6207C43.4524 21.7614 43.2905 21.8707 43.093 21.9489C42.8956 22.0256 42.6697 22.0639 42.4155 22.0639ZM47.1099 19.5923L46.4068 19.669C46.3869 19.598 46.3521 19.5312 46.3024 19.4688C46.2541 19.4062 46.1887 19.3558 46.1064 19.3175C46.024 19.2791 45.9231 19.2599 45.8038 19.2599C45.6433 19.2599 45.5083 19.2947 45.399 19.3643C45.291 19.4339 45.2377 19.5241 45.2392 19.6349C45.2377 19.7301 45.2725 19.8075 45.3436 19.8672C45.416 19.9268 45.5353 19.9759 45.7015 20.0142L46.2598 20.1335C46.5694 20.2003 46.7995 20.3061 46.9501 20.451C47.1021 20.5959 47.1788 20.7855 47.1802 21.0199C47.1788 21.2259 47.1184 21.4077 46.9991 21.5653C46.8812 21.7216 46.7172 21.8437 46.5069 21.9318C46.2967 22.0199 46.0552 22.0639 45.7825 22.0639C45.3819 22.0639 45.0595 21.9801 44.8152 21.8125C44.5708 21.6435 44.4252 21.4084 44.3784 21.1072L45.1305 21.0348C45.1646 21.1825 45.237 21.294 45.3478 21.3693C45.4586 21.4446 45.6028 21.4822 45.7804 21.4822C45.9636 21.4822 46.1106 21.4446 46.2214 21.3693C46.3336 21.294 46.3897 21.201 46.3897 21.0902C46.3897 20.9964 46.3535 20.919 46.2811 20.858C46.21 20.7969 46.0993 20.75 45.9487 20.7173L45.3904 20.6001C45.0765 20.5348 44.8443 20.4247 44.6937 20.2699C44.5431 20.1136 44.4686 19.9162 44.47 19.6776C44.4686 19.4759 44.5233 19.3011 44.6341 19.1534C44.7463 19.0043 44.9018 18.8892 45.1007 18.8082C45.301 18.7259 45.5318 18.6847 45.7931 18.6847C46.1767 18.6847 46.4785 18.7663 46.6987 18.9297C46.9203 19.093 47.0574 19.3139 47.1099 19.5923ZM48.5875 20.0824V22H47.8162V17.6364H48.5705V19.2834H48.6088C48.6855 19.0987 48.8042 18.9531 48.9647 18.8466C49.1266 18.7386 49.3326 18.6847 49.5826 18.6847C49.8098 18.6847 50.008 18.7322 50.177 18.8274C50.3461 18.9226 50.4767 19.0618 50.5691 19.245C50.6628 19.4283 50.7097 19.652 50.7097 19.9162V22H49.9384V20.0355C49.9384 19.8153 49.8816 19.6442 49.7679 19.522C49.6557 19.3984 49.498 19.3366 49.2949 19.3366C49.1586 19.3366 49.0364 19.3665 48.9284 19.4261C48.8219 19.4844 48.7381 19.5689 48.677 19.6797C48.6174 19.7905 48.5875 19.9247 48.5875 20.0824ZM52.4015 21.4034L52.3738 21.6378C52.3539 21.8168 52.3184 21.9986 52.2672 22.1832C52.2175 22.3693 52.165 22.5405 52.1096 22.6967C52.0542 22.853 52.0094 22.9759 51.9753 23.0653H51.4554C51.4753 22.9787 51.5023 22.8608 51.5364 22.7116C51.5719 22.5625 51.606 22.3949 51.6387 22.2088C51.6713 22.0227 51.6934 21.8338 51.7047 21.642L51.7196 21.4034H52.4015ZM54.6531 22V17.6364H55.4435V21.3374H57.3654V22H54.6531ZM58.0174 22V18.7273H58.7887V22H58.0174ZM58.4052 18.2628C58.283 18.2628 58.1779 18.2223 58.0898 18.1413C58.0018 18.0589 57.9577 17.9602 57.9577 17.8452C57.9577 17.7287 58.0018 17.63 58.0898 17.549C58.1779 17.4666 58.283 17.4254 58.4052 17.4254C58.5288 17.4254 58.6339 17.4666 58.7205 17.549C58.8086 17.63 58.8526 17.7287 58.8526 17.8452C58.8526 17.9602 58.8086 18.0589 58.7205 18.1413C58.6339 18.2223 58.5288 18.2628 58.4052 18.2628ZM62.5051 18.7273L61.3397 22H60.4874L59.3219 18.7273H60.1444L60.8965 21.1584H60.9306L61.6848 18.7273H62.5051ZM64.3764 22.0639C64.0483 22.0639 63.7649 21.9957 63.5263 21.8594C63.2891 21.7216 63.1065 21.527 62.9787 21.2756C62.8509 21.0227 62.7869 20.7251 62.7869 20.3828C62.7869 20.0462 62.8509 19.7507 62.9787 19.4964C63.108 19.2408 63.2884 19.0419 63.5199 18.8999C63.7514 18.7564 64.0234 18.6847 64.3359 18.6847C64.5376 18.6847 64.728 18.7173 64.907 18.7827C65.0874 18.8466 65.2464 18.946 65.3842 19.081C65.5234 19.2159 65.6328 19.3878 65.7124 19.5966C65.7919 19.804 65.8317 20.0511 65.8317 20.3381V20.5746H63.1491V20.0547H65.0923C65.0909 19.907 65.0589 19.7756 64.9964 19.6605C64.9339 19.544 64.8466 19.4524 64.7344 19.3857C64.6236 19.3189 64.4943 19.2855 64.3466 19.2855C64.1889 19.2855 64.0504 19.3239 63.9311 19.4006C63.8118 19.4759 63.7188 19.5753 63.652 19.6989C63.5866 19.821 63.5533 19.9553 63.5518 20.1016V20.5554C63.5518 20.7457 63.5866 20.9091 63.6562 21.0455C63.7259 21.1804 63.8232 21.2841 63.9482 21.3565C64.0732 21.4276 64.2195 21.4631 64.3871 21.4631C64.4993 21.4631 64.6009 21.4474 64.6918 21.4162C64.7827 21.3835 64.8615 21.3359 64.9283 21.2734C64.995 21.2109 65.0455 21.1335 65.0795 21.0412L65.7997 21.1222C65.7543 21.3125 65.6676 21.4787 65.5398 21.6207C65.4134 21.7614 65.2514 21.8707 65.054 21.9489C64.8565 22.0256 64.6307 22.0639 64.3764 22.0639ZM68.0066 22V17.6364H68.7971V19.4837H70.8191V17.6364H71.6117V22H70.8191V20.1463H68.7971V22H68.0066ZM73.8862 22.0639C73.5581 22.0639 73.2747 21.9957 73.036 21.8594C72.7988 21.7216 72.6163 21.527 72.4885 21.2756C72.3606 21.0227 72.2967 20.7251 72.2967 20.3828C72.2967 20.0462 72.3606 19.7507 72.4885 19.4964C72.6177 19.2408 72.7981 19.0419 73.0297 18.8999C73.2612 18.7564 73.5332 18.6847 73.8457 18.6847C74.0474 18.6847 74.2377 18.7173 74.4167 18.7827C74.5971 18.8466 74.7562 18.946 74.894 19.081C75.0332 19.2159 75.1426 19.3878 75.2221 19.5966C75.3017 19.804 75.3414 20.0511 75.3414 20.3381V20.5746H72.6589V20.0547H74.6021C74.6007 19.907 74.5687 19.7756 74.5062 19.6605C74.4437 19.544 74.3564 19.4524 74.2441 19.3857C74.1333 19.3189 74.0041 19.2855 73.8564 19.2855C73.6987 19.2855 73.5602 19.3239 73.4409 19.4006C73.3216 19.4759 73.2285 19.5753 73.1618 19.6989C73.0964 19.821 73.063 19.9553 73.0616 20.1016V20.5554C73.0616 20.7457 73.0964 20.9091 73.166 21.0455C73.2356 21.1804 73.3329 21.2841 73.4579 21.3565C73.5829 21.4276 73.7292 21.4631 73.8968 21.4631C74.0091 21.4631 74.1106 21.4474 74.2015 21.4162C74.2924 21.3835 74.3713 21.3359 74.438 21.2734C74.5048 21.2109 74.5552 21.1335 74.5893 21.0412L75.3095 21.1222C75.264 21.3125 75.1774 21.4787 75.0495 21.6207C74.9231 21.7614 74.7612 21.8707 74.5637 21.9489C74.3663 22.0256 74.1404 22.0639 73.8862 22.0639ZM76.9357 22.0661C76.7283 22.0661 76.5415 22.0291 76.3754 21.9553C76.2106 21.88 76.0799 21.7692 75.9833 21.6229C75.8881 21.4766 75.8406 21.2962 75.8406 21.0817C75.8406 20.897 75.8746 20.7443 75.9428 20.6236C76.011 20.5028 76.104 20.4062 76.2219 20.3338C76.3398 20.2614 76.4727 20.2067 76.6204 20.1697C76.7695 20.1314 76.9237 20.1037 77.0827 20.0866C77.2745 20.0668 77.43 20.049 77.5494 20.0334C77.6687 20.0163 77.7553 19.9908 77.8093 19.9567C77.8647 19.9212 77.8924 19.8665 77.8924 19.7926V19.7798C77.8924 19.6193 77.8448 19.495 77.7496 19.407C77.6545 19.3189 77.5174 19.2749 77.3384 19.2749C77.1495 19.2749 76.9996 19.3161 76.8888 19.3984C76.7795 19.4808 76.7056 19.5781 76.6673 19.6903L75.9471 19.5881C76.0039 19.3892 76.0977 19.223 76.2283 19.0895C76.359 18.9545 76.5188 18.8537 76.7077 18.7869C76.8967 18.7188 77.1055 18.6847 77.3342 18.6847C77.4918 18.6847 77.6488 18.7031 77.805 18.7401C77.9613 18.777 78.104 18.8381 78.2333 18.9233C78.3626 19.0071 78.4663 19.1214 78.5444 19.2663C78.6239 19.4112 78.6637 19.5923 78.6637 19.8097V22H77.9222V21.5504H77.8967C77.8498 21.6413 77.7837 21.7266 77.6985 21.8061C77.6147 21.8842 77.5089 21.9474 77.381 21.9957C77.2546 22.0426 77.1062 22.0661 76.9357 22.0661ZM77.136 21.4993C77.2908 21.4993 77.4251 21.4687 77.5387 21.4077C77.6523 21.3452 77.7397 21.2628 77.8008 21.1605C77.8633 21.0582 77.8945 20.9467 77.8945 20.826V20.4403C77.8704 20.4602 77.8292 20.4787 77.771 20.4957C77.7141 20.5128 77.6502 20.5277 77.5792 20.5405C77.5082 20.5533 77.4379 20.5646 77.3683 20.5746C77.2987 20.5845 77.2383 20.593 77.1871 20.6001C77.0721 20.6158 76.9691 20.6413 76.8782 20.6768C76.7873 20.7124 76.7156 20.7621 76.663 20.826C76.6104 20.8885 76.5842 20.9695 76.5842 21.0689C76.5842 21.2109 76.636 21.3182 76.7397 21.3906C76.8434 21.4631 76.9755 21.4993 77.136 21.4993ZM80.2106 17.6364V22H79.4393V17.6364H80.2106ZM82.638 18.7273V19.3239H80.7566V18.7273H82.638ZM81.2211 17.9432H81.9924V21.0156C81.9924 21.1193 82.008 21.1989 82.0392 21.2543C82.0719 21.3082 82.1145 21.3452 82.1671 21.3651C82.2196 21.3849 82.2779 21.3949 82.3418 21.3949C82.3901 21.3949 82.4341 21.3913 82.4739 21.3842C82.5151 21.3771 82.5463 21.3707 82.5676 21.3651L82.6976 21.968C82.6564 21.9822 82.5975 21.9979 82.5208 22.0149C82.4455 22.032 82.3532 22.0419 82.2438 22.0447C82.0506 22.0504 81.8766 22.0213 81.7218 21.9574C81.5669 21.892 81.4441 21.7912 81.3532 21.6548C81.2637 21.5185 81.2196 21.348 81.2211 21.1435V17.9432ZM84.1246 20.0824V22H83.3533V17.6364H84.1076V19.2834H84.146C84.2227 19.0987 84.3413 18.9531 84.5018 18.8466C84.6637 18.7386 84.8697 18.6847 85.1197 18.6847C85.3469 18.6847 85.5451 18.7322 85.7141 18.8274C85.8832 18.9226 86.0138 19.0618 86.1062 19.245C86.1999 19.4283 86.2468 19.652 86.2468 19.9162V22H85.4755V20.0355C85.4755 19.8153 85.4187 19.6442 85.305 19.522C85.1928 19.3984 85.0352 19.3366 84.832 19.3366C84.6957 19.3366 84.5735 19.3665 84.4656 19.4261C84.359 19.4844 84.2752 19.5689 84.2141 19.6797C84.1545 19.7905 84.1246 19.9247 84.1246 20.0824ZM87.3952 23.2273C87.2901 23.2273 87.1928 23.2188 87.1033 23.2017C87.0153 23.1861 86.945 23.1676 86.8924 23.1463L87.0714 22.5455C87.1836 22.5781 87.2837 22.5938 87.3718 22.5923C87.4599 22.5909 87.5373 22.5632 87.604 22.5092C87.6722 22.4567 87.7298 22.3686 87.7766 22.245L87.8427 22.0682L86.6559 18.7273H87.4741L88.2283 21.1989H88.2624L89.0188 18.7273H89.8391L88.5288 22.3963C88.4677 22.5696 88.3867 22.718 88.2859 22.8416C88.185 22.9666 88.0614 23.0618 87.9151 23.1271C87.7702 23.1939 87.5969 23.2273 87.3952 23.2273Z" fill="#969696"/>
<path fill-rule="evenodd" clip-rule="evenodd" d="M5.02967 1.27979C7.40098 2.59741 8.94528 5.46055 8.72763 8.62934C8.5294 11.5165 6.92013 13.8959 4.72722 14.965C2.35592 13.6473 0.811616 10.7845 1.02916 7.6162C1.22749 4.72855 2.83677 2.34878 5.02967 1.27979Z" fill="white"/>
<path fill-rule="evenodd" clip-rule="evenodd" d="M15.2875 3.21827C16.6859 3.21827 18.0316 3.46383 19.2929 3.91652C19.7003 5.30392 19.9999 6.77545 19.9999 8.31356C19.9999 10.004 19.6984 11.6682 19.2148 13.1859C18 16.9968 15.3502 20.0787 12.0167 21.6214C10.479 22.3325 8.75372 22.6048 6.98052 22.6048C5.58228 22.6048 4.23641 22.3592 2.97525 21.9065C2.56784 20.5191 2.34668 19.0384 2.34668 17.5008C2.34668 15.066 2.82237 12.6885 3.79564 10.6827C4.87334 8.46176 6.48675 6.61129 8.4397 5.30962C9.78081 4.41494 11.292 3.69251 12.8909 3.37148C13.6714 3.21518 14.468 3.21827 15.2875 3.21827Z" fill="#738C4B"/>
<path fill-rule="evenodd" clip-rule="evenodd" d="M14.8424 4.28369C16.0832 4.28369 17.2776 4.50165 18.3968 4.9034C18.7583 6.13461 18.9545 7.44859 18.9545 8.81308C18.9545 11.619 18.0496 14.1683 16.6517 16.2676C14.5617 19.4061 11.1351 21.4222 7.47058 21.4877C6.22976 21.5095 5.01571 21.313 3.91621 20.868C3.46934 19.7097 3.3584 18.3228 3.3584 16.9584C3.3584 15.2608 3.73151 13.65 4.28518 12.1823C5.18222 9.80591 6.66299 7.80165 8.60344 6.40399C10.4054 5.10632 12.5293 4.28369 14.8424 4.28369Z" fill="white"/>
<path d="M10.9969 12.0892L0 24.2256L0.70221 25.0006L11.6991 12.8642L10.9969 12.0892Z" fill="#738C4B"/>
</svg>
